<?xml version="1.0" standalone="no"?>
<!DOCTYPE svg PUBLIC "-//W3C//DTD SVG 20010904//EN"
 "http://www.w3.org/TR/2001/REC-SVG-20010904/DTD/svg10.dtd">
<svg version="1.0" xmlns="http://www.w3.org/2000/svg"
 width="1280.000000pt" height="1280.000000pt" viewBox="0 0 1280.000000 1280.000000"
 preserveAspectRatio="xMidYMid meet">

<g transform="translate(0.000000,1280.000000) scale(0.100000,-0.100000)"
fill="#000000" stroke="none">
<path d="M6155 11289 c-104 -5 -206 -13 -225 -18 -19 -6 -114 -19 -211 -31
-96 -11 -188 -25 -205 -30 -16 -5 -83 -20 -149 -34 -200 -41 -313 -72 -521
-142 -109 -36 -203 -70 -209 -74 -5 -3 -32 -15 -60 -24 -27 -10 -79 -32 -115
-48 -36 -16 -78 -36 -95 -43 -219 -99 -473 -242 -694 -392 -134 -91 -134 -91
-254 -184 -293 -226 -677 -619 -886 -907 -90 -123 -231 -336 -231 -348 0 -4
-6 -15 -14 -23 -8 -9 -41 -65 -73 -126 -33 -60 -65 -119 -71 -130 -21 -36
-113 -238 -144 -315 -93 -232 -162 -447 -198 -615 -7 -33 -17 -68 -22 -77 -8
-16 -42 -208 -75 -428 -23 -152 -23 -868 0 -1020 40 -267 61 -381 91 -500 10
-36 22 -85 27 -110 6 -25 15 -54 20 -65 5 -11 20 -58 34 -105 27 -94 77 -238
88 -257 5 -7 17 -38 28 -70 10 -31 25 -66 32 -77 7 -12 21 -43 31 -71 11 -27
23 -55 27 -61 5 -6 36 -64 69 -130 109 -213 120 -233 267 -454 45 -69 114
-165 153 -213 38 -48 70 -90 70 -92 0 -2 9 -15 20 -27 11 -13 57 -66 102 -118
45 -52 158 -170 250 -262 l168 -167 0 -1105 0 -1106 28 12 c15 7 60 34 100 60
41 26 76 48 79 48 7 0 151 87 243 145 36 23 81 50 100 60 19 10 46 26 60 36
14 10 44 28 67 41 23 13 90 52 149 88 59 36 119 72 133 80 14 9 58 35 96 58
39 24 79 48 90 55 11 7 40 25 64 40 23 15 64 39 90 52 25 14 98 57 161 96 63
39 132 81 152 93 106 61 153 91 156 98 2 4 9 8 15 8 7 0 39 18 72 40 89 59 92
59 290 14 39 -8 133 -26 210 -40 77 -13 160 -28 185 -34 25 -6 113 -18 195
-27 215 -24 854 -24 1080 0 88 10 171 22 185 27 14 5 79 16 145 26 66 9 138
22 160 29 22 8 69 19 105 25 36 6 90 20 120 30 30 10 92 27 138 39 115 30 349
112 502 178 103 44 305 138 340 158 14 7 41 22 60 31 51 26 270 153 302 175
14 11 29 19 33 19 4 0 44 26 88 58 45 32 96 66 112 77 17 10 77 55 133 99 476
372 838 773 1132 1251 63 103 190 330 190 340 0 5 85 188 100 217 12 22 76
186 107 273 21 60 43 132 92 295 27 91 55 218 78 355 13 83 29 166 34 185 34
123 48 660 25 950 -9 113 -21 219 -26 235 -5 17 -20 98 -34 180 -26 158 -60
306 -94 415 -12 36 -30 94 -40 130 -26 85 -69 207 -87 245 -8 17 -33 75 -56
130 -77 186 -195 409 -324 615 -23 36 -50 79 -61 96 -140 225 -512 655 -721
834 -29 25 -105 90 -170 146 -65 55 -143 118 -173 139 -30 21 -73 53 -95 70
-72 57 -324 217 -460 292 -116 64 -361 181 -475 228 -63 26 -123 51 -133 56
-21 11 -154 58 -272 96 -146 47 -328 95 -460 120 -71 14 -139 29 -150 34 -11
4 -74 15 -140 24 -66 8 -154 20 -195 25 -222 30 -579 42 -855 29z m669 -2160
c136 -17 309 -91 413 -177 32 -27 65 -53 74 -58 9 -5 38 -36 66 -69 102 -124
170 -245 192 -345 7 -30 20 -75 28 -100 19 -54 22 -274 5 -335 -6 -22 -18 -67
-26 -101 -20 -78 -67 -182 -111 -243 -19 -27 -35 -53 -35 -58 0 -6 -33 -44
-72 -85 -124 -127 -326 -246 -448 -264 -25 -4 -51 -12 -59 -18 -10 -8 -427
-11 -1515 -11 l-1501 0 0 230 0 230 1485 5 1485 5 69 35 c134 68 224 176 259
308 26 96 26 158 1 248 -39 140 -124 243 -259 312 -70 37 -70 37 -200 37 -127
0 -132 -1 -199 -33 -100 -48 -219 -168 -240 -242 -4 -14 -14 -39 -22 -56 -7
-18 -17 -56 -22 -85 l-7 -54 -228 -3 -227 -2 0 22 c0 74 23 196 54 286 58 171
155 311 291 421 211 172 453 236 749 200z m2106 -944 c216 -31 357 -98 513
-244 135 -127 217 -260 273 -446 25 -81 28 -104 27 -240 0 -124 -4 -160 -21
-210 -11 -33 -23 -73 -27 -90 -19 -86 -138 -278 -226 -366 -136 -136 -359
-246 -549 -270 -36 -4 -1301 -8 -2813 -8 l-2747 -1 2 233 3 232 2760 2 2759 3
68 20 c37 12 85 34 107 51 23 16 44 29 48 29 10 0 73 62 73 73 0 5 13 27 30
50 65 92 100 276 65 343 -8 16 -15 37 -15 46 0 35 -48 124 -94 175 -69 76
-132 118 -214 143 -62 19 -90 22 -177 18 -57 -3 -110 -9 -117 -15 -7 -5 -34
-17 -59 -27 -52 -19 -150 -103 -193 -165 -31 -44 -71 -154 -82 -221 l-7 -40
-229 0 -230 0 7 63 c9 87 25 167 41 204 8 17 14 38 14 47 0 45 111 229 195
323 120 136 351 259 530 283 50 6 97 13 105 15 34 6 80 4 180 -10z m-674
-2377 c74 -17 220 -84 243 -112 8 -9 19 -16 25 -16 33 -1 216 -234 216 -277 0
-7 8 -27 19 -46 39 -69 51 -307 21 -404 -43 -139 -106 -249 -191 -335 -26 -27
-50 -48 -53 -48 -3 0 -35 -20 -72 -45 -36 -25 -72 -45 -80 -45 -8 0 -25 -7
-39 -16 -30 -20 -161 -43 -243 -44 -154 -1 -303 46 -417 130 -80 59 -176 171
-218 254 -37 72 -64 172 -74 269 l-5 47 236 0 236 0 0 -27 c0 -57 20 -101 66
-143 58 -53 99 -70 172 -70 48 0 67 6 112 33 30 17 68 52 85 75 28 41 30 49
30 137 0 89 -1 95 -31 131 -16 21 -47 52 -68 68 l-38 31 -1701 5 -1702 5 -3
233 -2 232 1702 -3 c1527 -3 1710 -5 1774 -19z"/>
</g>
</svg>
